<?xml version="1.0" encoding="UTF-8"?>
<svg id="Layer_2" data-name="Layer 2" xmlns="http://www.w3.org/2000/svg" viewBox="0 0 1260.83 225.78">
  <defs>
    <style>
      .cls-1 {
        fill: #000;
        stroke-width: 0px;
      }
    </style>
  </defs>
  <g id="Layer_1-2" data-name="Layer 1">
    <g>
      <path class="cls-1" d="M158.1,174.53h-21.5L206.35,1.28h23l69.5,173.25h-21l-20-49.25h-80.25l-19.5,49.25ZM217.1,22.03l-33.75,85.75h69.25l-34.5-85.75h-1Z"/>
      <path class="cls-1" d="M455.35,2.03c51.25,0,75.25,41.5,75.25,86.25s-24.25,86.25-75.75,86.25h-68.75V2.03h69.25ZM405.85,20.03v136.5h48.75c36.75,0,55.5-30,55.5-68.25s-18.5-68.25-55-68.25h-49.25Z"/>
      <path class="cls-1" d="M580.6,22.78h-20.25V2.03h20.25v20.75ZM579.85,174.53h-18.75V43.78h18.75v130.75Z"/>
      <path class="cls-1" d="M665.09,134.03c-9.25,0-18.25-1.75-25.5-5.25-6,4-8.25,8.5-8.25,13,0,6.25,5.5,12,17,12h39c26,0,41,10.75,41,32,0,26-20.75,40-61.75,40-44,0-58.75-12.75-58.75-33.75,0-11.5,6.75-23,23-26.5v-.5c-10.75-2.5-17.5-10.5-17.5-20.5,0-7.75,4.25-16.75,15.25-21.75-9.75-7.75-15.5-20-15.5-35.25,0-28.25,19.5-46.5,52-46.5,8.25,0,17.25,1.25,22.25,3.5v-.25h43.75v16h-25c7.25,7,11.5,16.25,11.5,28,0,30.25-21.75,45.75-52.5,45.75ZM651.34,170.78c-16.75,0-24,9.75-24,19.75,0,13.25,9.75,19.25,39,19.25,31.25,0,42.5-6.5,42.5-22.5,0-10.75-8.25-16.5-21.5-16.5h-36ZM665.09,118.28c21,0,33-11,33-30.75s-12-30.75-33-30.75-32.5,11-32.5,30.75,12,30.75,32.5,30.75Z"/>
      <path class="cls-1" d="M775.34,22.78h-20.25V2.03h20.25v20.75ZM774.59,174.53h-18.75V43.78h18.75v130.75Z"/>
      <path class="cls-1" d="M1096.83,174.53V2.03h18.75v172.5h-18.75Z"/>
      <path class="cls-1" d="M1172.83,108.78l62-65h23.5l-47.75,50,50.25,80.75h-22.25l-41.5-67.5-24.25,24.5v43h-18.75V2.03h18.75v106.75Z"/>
      <path class="cls-1" d="M841.59,174.53h-17.17M824.42,174.53c-4.81-34.56-4.56-58.78.75-73.97.31-.89.66-1.77,1.04-2.65-4.28-4.02-7.99-8.65-10.99-13.85-10.64-18.4-10.41-40.23.6-56.98,7.98-12.14,28.5-31.68,76.23-26.11,27.34,3.19,40.54,16.18,46.8,26.51,6.82,11.26,7.01,21.68,7.01,22.83h-17s-.19-7.2-4.95-14.66c-6.34-9.93-17.72-15.92-33.83-17.8-38.67-4.51-54.22,9.69-60.05,18.56-7.45,11.34-7.49,26.34-.09,39.13,1.26,2.18,3.27,5.16,6.24,8.27,3.63-3.55,7.91-6.71,12.67-9.3,8.65-4.71,22.88-9.78,41.51-7.14,10.34,1.46,18.96,7.32,22.5,15.29,2.79,6.29,2.11,13.26-1.87,19.12-4,5.9-14.32,13.12-30.26,14.06-14.83.88-28.57-1.91-40.1-7.83-2.76,9.5-4.5,28.55.96,66.5M850.28,93.92c7.41,3.46,17.05,5.71,29.44,4.97,7.91-.47,15.27-3.81,17.19-6.63.8-1.18.75-1.91.4-2.69-.92-2.07-4.23-4.62-9.34-5.35-15.32-2.17-28.95,2.48-37.69,9.7Z"/>
      <path class="cls-1" d="M116.51,141.17c-6.34,9.93-17.72,15.92-33.83,17.8-38.67,4.51-54.22-9.69-60.05-18.56-7.45-11.34-7.49-26.34-.09-39.13.17-.3.36-.61.56-.93,12.78,8.03,28.73,10.07,42.98,9.23,15.94-.94,26.26-8.17,30.26-14.06,3.97-5.86,4.66-12.83,1.87-19.12-3.53-7.97-12.15-13.83-22.5-15.29-18.63-2.64-32.86,2.42-41.51,7.14-4.16,2.27-7.95,4.97-11.27,7.98-.13-.22-.27-.44-.39-.65-7.4-12.8-7.37-27.79.09-39.13,5.83-8.87,21.38-23.07,60.05-18.56,16.11,1.88,27.5,7.87,33.83,17.8,4.76,7.46,4.95,14.65,4.95,14.65h17c0-1.14-.19-11.56-7.01-22.82-6.26-10.33-19.46-23.32-46.8-26.51C36.92-4.6,16.4,14.94,8.42,27.09c-11.01,16.75-11.24,38.58-.6,56.98.87,1.5,1.8,2.94,2.78,4.35-.98,1.4-1.91,2.85-2.78,4.35-10.64,18.4-10.41,40.23.6,56.98,7.98,12.14,28.5,31.68,76.23,26.11,27.34-3.19,40.54-16.18,46.8-26.51,6.82-11.26,7.01-21.68,7.01-22.83h-17s-.19,7.2-4.95,14.66ZM73.32,77.93c5.11.72,8.42,3.28,9.34,5.35.35.79.4,1.51-.4,2.69-1.92,2.83-9.28,6.16-17.19,6.63-12.4.74-22.03-1.51-29.44-4.97,8.74-7.22,22.37-11.87,37.69-9.7Z"/>
      <path class="cls-1" d="M1002.84,177.53c-38.5,0-63.5-24.5-63.5-68.25,0-.71,0-1.41.02-2.1.79-42.68,25.6-66.4,63.48-66.4s62.46,23.72,63.23,66.4c.01.69.02,1.39.02,2.1,0,43.75-24.75,68.25-63.25,68.25ZM1002.84,161.53c28,0,44-20.5,44-52.25,0-.64,0-1.27-.02-1.9-.62-31.14-16.54-50.6-43.98-50.6s-43.3,19.38-43.98,50.4c-.02.69-.02,1.39-.02,2.1,0,31.75,16,52.25,44,52.25Z"/>
    </g>
  </g>
</svg>